<svg width="52" height="53" viewBox="0 0 52 53" fill="none" xmlns="http://www.w3.org/2000/svg">
<circle cx="26" cy="26.7659" r="26" fill="#1D4FFF" fill-opacity="0.2"/>
<g clip-path="url(#clip0_604_981)">
<path d="M26.0002 22.5992C25.1761 22.5992 24.3705 22.8436 23.6853 23.3014C23.0001 23.7592 22.466 24.41 22.1507 25.1713C21.8353 25.9327 21.7528 26.7705 21.9136 27.5787C22.0743 28.387 22.4712 29.1294 23.0539 29.7121C23.6366 30.2948 24.379 30.6917 25.1873 30.8525C25.9955 31.0132 26.8333 30.9307 27.5947 30.6153C28.356 30.3 29.0068 29.7659 29.4646 29.0807C29.9225 28.3955 30.1668 27.5899 30.1668 26.7658C30.1668 25.6608 29.7278 24.601 28.9464 23.8196C28.165 23.0382 27.1052 22.5992 26.0002 22.5992ZM26.0002 28.8492C25.5881 28.8492 25.1853 28.727 24.8427 28.4981C24.5001 28.2692 24.2331 27.9438 24.0754 27.5631C23.9177 27.1824 23.8765 26.7635 23.9569 26.3594C24.0372 25.9553 24.2357 25.5841 24.527 25.2927C24.8184 25.0014 25.1896 24.8029 25.5937 24.7225C25.9979 24.6422 26.4167 24.6834 26.7974 24.8411C27.1781 24.9988 27.5035 25.2658 27.7324 25.6084C27.9613 25.951 28.0835 26.3538 28.0835 26.7658C28.0835 27.3184 27.864 27.8483 27.4733 28.239C27.0826 28.6297 26.5527 28.8492 26.0002 28.8492Z" fill="#1D4FFF"/>
<path d="M35.6812 28.745L35.2187 28.4784C35.4269 27.3455 35.4269 26.1842 35.2187 25.0513L35.6812 24.7846C36.0369 24.5794 36.3486 24.3062 36.5987 23.9805C36.8488 23.6548 37.0322 23.2831 37.1386 22.8865C37.245 22.4899 37.2723 22.0763 37.2188 21.6692C37.1654 21.262 37.0322 20.8694 36.827 20.5138C36.6218 20.1581 36.3486 19.8464 36.0229 19.5963C35.6973 19.3462 35.3255 19.1628 34.9289 19.0564C34.5323 18.9499 34.1187 18.9227 33.7116 18.9762C33.3045 19.0296 32.9119 19.1628 32.5562 19.368L32.0927 19.6357C31.2172 18.8877 30.2111 18.3078 29.125 17.9252V17.3909C29.125 16.5621 28.7957 15.7672 28.2097 15.1812C27.6236 14.5951 26.8288 14.2659 26 14.2659C25.1712 14.2659 24.3763 14.5951 23.7902 15.1812C23.2042 15.7672 22.875 16.5621 22.875 17.3909V17.9252C21.7889 18.3092 20.7831 18.8905 19.9083 19.6398L19.4427 19.37C18.7244 18.9556 17.8709 18.8435 17.0699 19.0584C16.269 19.2733 15.5862 19.7976 15.1718 20.5159C14.7574 21.2342 14.6453 22.0877 14.8602 22.8886C15.0751 23.6895 15.5994 24.3723 16.3177 24.7867L16.7802 25.0534C16.5719 26.1862 16.5719 27.3476 16.7802 28.4805L16.3177 28.7471C15.5994 29.1615 15.0751 29.8443 14.8602 30.6452C14.6453 31.4462 14.7574 32.2997 15.1718 33.018C15.5862 33.7362 16.269 34.2605 17.0699 34.4754C17.8709 34.6903 18.7244 34.5782 19.4427 34.1638L19.9062 33.8961C20.782 34.6442 21.7885 35.2241 22.875 35.6065V36.1409C22.875 36.9697 23.2042 37.7645 23.7902 38.3506C24.3763 38.9366 25.1712 39.2659 26 39.2659C26.8288 39.2659 27.6236 38.9366 28.2097 38.3506C28.7957 37.7645 29.125 36.9697 29.125 36.1409V35.6065C30.211 35.2226 31.2168 34.6413 32.0916 33.8919L32.5572 34.1607C33.2755 34.5751 34.129 34.6871 34.93 34.4723C35.7309 34.2574 36.4137 33.7331 36.8281 33.0148C37.2425 32.2965 37.3546 31.443 37.1397 30.6421C36.9248 29.8412 36.4005 29.1584 35.6822 28.744L35.6812 28.745ZM33.027 24.8117C33.3798 26.0899 33.3798 27.4398 33.027 28.718C32.9654 28.9404 32.9795 29.1771 33.067 29.3907C33.1545 29.6043 33.3104 29.7828 33.5104 29.8982L34.6395 30.5502C34.8789 30.6884 35.0536 30.9159 35.1252 31.1829C35.1968 31.4498 35.1594 31.7343 35.0213 31.9737C34.8832 32.2131 34.6556 32.3878 34.3887 32.4594C34.1217 32.531 33.8373 32.4936 33.5979 32.3555L32.4666 31.7013C32.2665 31.5854 32.0335 31.5394 31.8044 31.5705C31.5752 31.6016 31.3629 31.7081 31.201 31.8732C30.2738 32.8197 29.1058 33.495 27.8229 33.8263C27.5989 33.8839 27.4005 34.0143 27.2589 34.197C27.1173 34.3798 27.0405 34.6045 27.0406 34.8357V36.1409C27.0406 36.4171 26.9308 36.6821 26.7355 36.8774C26.5401 37.0728 26.2752 37.1825 25.9989 37.1825C25.7226 37.1825 25.4577 37.0728 25.2623 36.8774C25.067 36.6821 24.9572 36.4171 24.9572 36.1409V34.8367C24.9574 34.6055 24.8805 34.3808 24.7389 34.1981C24.5973 34.0153 24.3989 33.8849 24.175 33.8273C22.892 33.4947 21.7243 32.8179 20.7979 31.87C20.6359 31.705 20.4236 31.5985 20.1945 31.5674C19.9653 31.5362 19.7324 31.5823 19.5322 31.6982L18.4031 32.3513C18.2846 32.4208 18.1535 32.4661 18.0174 32.4847C17.8813 32.5033 17.7428 32.4948 17.61 32.4597C17.4772 32.4246 17.3526 32.3636 17.2435 32.2801C17.1344 32.1967 17.0428 32.0925 16.9742 31.9735C16.9055 31.8545 16.861 31.7232 16.8433 31.5869C16.8256 31.4507 16.835 31.3123 16.871 31.1797C16.907 31.0472 16.9688 30.923 17.053 30.8144C17.1372 30.7059 17.242 30.615 17.3614 30.5471L18.4906 29.895C18.6905 29.7797 18.8465 29.6012 18.934 29.3875C19.0215 29.1739 19.0355 28.9373 18.9739 28.7148C18.6212 27.4366 18.6212 26.0868 18.9739 24.8086C19.0344 24.5866 19.0197 24.3508 18.9321 24.138C18.8444 23.9253 18.6888 23.7475 18.4895 23.6325L17.3604 22.9805C17.121 22.8423 16.9463 22.6147 16.8747 22.3478C16.8031 22.0809 16.8405 21.7964 16.9786 21.557C17.1167 21.3176 17.3443 21.1429 17.6113 21.0713C17.8782 20.9997 18.1627 21.0371 18.402 21.1752L19.5333 21.8294C19.7328 21.9456 19.9653 21.9921 20.1943 21.9618C20.4232 21.9314 20.6355 21.8259 20.7979 21.6617C21.725 20.7152 22.8931 20.0398 24.176 19.7086C24.4006 19.6508 24.5995 19.5198 24.7412 19.3362C24.8829 19.1526 24.9593 18.927 24.9583 18.695V17.3909C24.9583 17.1146 25.068 16.8496 25.2634 16.6543C25.4587 16.4589 25.7237 16.3492 26 16.3492C26.2762 16.3492 26.5412 16.4589 26.7365 16.6543C26.9319 16.8496 27.0416 17.1146 27.0416 17.3909V18.695C27.0415 18.9262 27.1183 19.1509 27.2599 19.3337C27.4016 19.5164 27.6 19.6468 27.8239 19.7044C29.1073 20.0369 30.2754 20.7137 31.202 21.6617C31.364 21.8268 31.5763 21.9333 31.8054 21.9644C32.0346 21.9955 32.2676 21.9495 32.4677 21.8336L33.5968 21.1805C33.7153 21.111 33.8464 21.0656 33.9825 21.047C34.1186 21.0284 34.2571 21.0369 34.3899 21.072C34.5227 21.1071 34.6473 21.1682 34.7564 21.2516C34.8655 21.3351 34.9571 21.4393 35.0257 21.5582C35.0944 21.6772 35.1389 21.8086 35.1566 21.9448C35.1743 22.081 35.1649 22.2194 35.1289 22.352C35.0929 22.4846 35.0311 22.6087 34.9469 22.7173C34.8627 22.8259 34.7579 22.9167 34.6385 22.9846L33.5093 23.6367C33.3104 23.752 33.1553 23.9299 33.068 24.1426C32.9808 24.3554 32.9664 24.591 33.027 24.8127V24.8117Z" fill="#1D4FFF"/>
</g>
<defs>
<clipPath id="clip0_604_981">
<rect width="25" height="25" fill="white" transform="translate(13.5 14.2659)"/>
</clipPath>
</defs>
</svg>
