<svg width="52" height="53" viewBox="0 0 52 53" fill="none" xmlns="http://www.w3.org/2000/svg">
<circle cx="26" cy="26.7659" r="26" fill="#00C97F" fill-opacity="0.2"/>
<g clip-path="url(#clip0_604_993)">
<path d="M30.7058 14.2659C26.3246 14.2659 22.8933 16.3252 22.8933 18.9534V21.6482C22.3902 21.5888 21.8673 21.5575 21.3308 21.5575C16.9496 21.5575 13.5183 23.6169 13.5183 26.245V34.5784C13.5183 37.2065 16.9496 39.2659 21.3308 39.2659C24.8798 39.2659 27.8058 37.9148 28.7891 36.0044C29.4121 36.095 30.0537 36.1409 30.7058 36.1409C35.0871 36.1409 38.5183 34.0815 38.5183 31.4534V18.9534C38.5183 16.3252 35.0871 14.2659 30.7058 14.2659ZM36.435 27.2867C36.435 28.5159 33.985 29.8909 30.7058 29.8909C30.1725 29.8909 29.6496 29.8544 29.1433 29.7836V27.7169C29.6537 27.7763 30.1766 27.8075 30.7058 27.8075C32.9912 27.8075 35.0183 27.2471 36.435 26.3377V27.2867ZM15.6016 29.4627C17.0183 30.3721 19.0454 30.9325 21.3308 30.9325C23.6162 30.9325 25.6433 30.3721 27.06 29.4627V30.4117C27.06 31.6409 24.61 33.0159 21.3308 33.0159C18.0516 33.0159 15.6016 31.6409 15.6016 30.4117V29.4627ZM36.435 23.12C36.435 24.3492 33.985 25.7242 30.7058 25.7242C30.1485 25.7242 29.6016 25.6846 29.0746 25.6075C28.8735 24.6836 28.2412 23.8534 27.2975 23.1877C28.3225 23.4794 29.4766 23.6409 30.7058 23.6409C32.9912 23.6409 35.0183 23.0805 36.435 22.1711V23.12ZM30.7058 16.3492C33.985 16.3492 36.435 17.7242 36.435 18.9534C36.435 20.1825 33.985 21.5575 30.7058 21.5575C27.4266 21.5575 24.9766 20.1825 24.9766 18.9534C24.9766 17.7242 27.4266 16.3492 30.7058 16.3492ZM21.3308 23.6409C24.61 23.6409 27.06 25.0159 27.06 26.245C27.06 27.4742 24.61 28.8492 21.3308 28.8492C18.0516 28.8492 15.6016 27.4742 15.6016 26.245C15.6016 25.0159 18.0516 23.6409 21.3308 23.6409ZM21.3308 37.1825C18.0516 37.1825 15.6016 35.8075 15.6016 34.5784V33.6294C17.0183 34.5388 19.0454 35.0992 21.3308 35.0992C23.6162 35.0992 25.6433 34.5388 27.06 33.6294V34.5784C27.06 35.8075 24.61 37.1825 21.3308 37.1825ZM30.7058 34.0575C30.1725 34.0575 29.6496 34.0211 29.1433 33.9502V31.8836C29.6537 31.943 30.1766 31.9742 30.7058 31.9742C32.9912 31.9742 35.0183 31.4138 36.435 30.5044V31.4534C36.435 32.6825 33.985 34.0575 30.7058 34.0575Z" fill="#00C97F"/>
</g>
<defs>
<clipPath id="clip0_604_993">
<rect width="25" height="25" fill="white" transform="translate(13.5183 14.2659)"/>
</clipPath>
</defs>
</svg>
