<svg width="52" height="52" viewBox="0 0 52 52" fill="none" xmlns="http://www.w3.org/2000/svg">
<circle cx="26" cy="26" r="26" fill="#F29A16" fill-opacity="0.2"/>
<g clip-path="url(#clip0_604_977)">
<path d="M36.605 21.6073C36.653 19.9583 36.0248 18.3479 34.8394 17.1604C33.6509 15.9729 32.0321 15.3375 30.3925 15.3958C28.155 12.8938 23.8446 12.8938 21.6071 15.3958C19.954 15.3406 18.3478 15.974 17.1603 17.1615C15.9728 18.349 15.3457 19.9583 15.3946 21.6083C12.8925 23.8458 12.8925 28.1563 15.3946 30.3938C15.3457 32.0427 15.9728 33.6531 17.1603 34.8406C18.3478 36.0271 19.9623 36.6615 21.6071 36.6063C23.8446 39.1083 28.155 39.1083 30.3925 36.6063C32.0259 36.6615 33.6509 36.0281 34.8394 34.8406C36.0269 33.6531 36.653 32.0438 36.605 30.3938C39.1061 28.1552 39.1061 23.8469 36.605 21.6083V21.6073ZM34.0884 28.4167C33.5686 28.7667 33.3092 29.3938 33.428 30.0094C33.6134 30.9646 33.3144 31.9438 32.629 32.6292C31.9436 33.3156 30.9675 33.6136 30.0092 33.4281C29.3894 33.3073 28.7665 33.5688 28.4155 34.0886C27.3425 35.7844 24.6561 35.7844 23.5832 34.0886C23.2342 33.5667 22.5957 33.3073 21.9894 33.4281C21.0384 33.6125 20.0571 33.3156 19.3707 32.6292C18.6853 31.9438 18.3863 30.9646 18.5717 30.0104C18.6915 29.3948 18.4321 28.7667 17.9113 28.4167C16.2155 27.3438 16.2155 24.6573 17.9113 23.5833C18.4321 23.2333 18.6915 22.6052 18.5717 21.9896C18.3863 21.0354 18.6842 20.0563 19.3707 19.3708C20.0561 18.6854 21.0353 18.3875 21.9894 18.5719C22.605 18.6917 23.2332 18.4313 23.5832 17.9115C24.6561 16.2156 27.3425 16.2156 28.4155 17.9115C28.7665 18.4313 29.3967 18.6948 30.0092 18.5719C30.9675 18.3865 31.9415 18.6854 32.629 19.3708C33.3134 20.0563 33.6123 21.0365 33.428 21.9906C33.3092 22.6063 33.5686 23.2333 34.0884 23.5833C35.7842 24.6573 35.7842 27.3427 34.0884 28.4167ZM30.1665 28.5136C30.1665 30.1792 29.0707 31.5938 27.5623 32.074L27.5186 32.0813C27.2019 33.6136 24.9238 33.6875 24.5113 32.1792L24.4373 32.1677C23.4415 31.9531 22.5634 31.3271 22.0436 30.4281C21.6113 29.6813 21.8665 28.725 22.6134 28.2938C23.3592 27.8615 24.3165 28.1167 24.7478 28.8636C24.8425 29.0271 25.0113 29.124 25.1998 29.124H26.43C27.0863 29.1427 27.2717 28.1698 26.6571 27.9448L24.1821 26.9552C20.9425 25.7531 21.178 20.8667 24.4373 19.925L24.4832 19.9094C24.8071 18.3833 27.0769 18.3156 27.4884 19.8198L27.5623 19.8313C28.5571 20.0458 29.4363 20.6719 29.9571 21.5708C30.3884 22.3177 30.1332 23.274 29.3863 23.7052C28.6394 24.1375 27.6832 23.8813 27.2509 23.1354C27.1561 22.9719 26.9873 22.874 26.7988 22.874H25.5686C24.9123 22.8552 24.7269 23.8281 25.3415 24.0531L27.8165 25.0427C29.2436 25.6136 30.1655 26.975 30.1655 28.5125L30.1665 28.5136Z" fill="#F29A16"/>
</g>
<defs>
<clipPath id="clip0_604_977">
<rect width="25" height="25" fill="white" transform="translate(13.5 13.5)"/>
</clipPath>
</defs>
</svg>
