<svg width="52" height="53" viewBox="0 0 52 53" fill="none" xmlns="http://www.w3.org/2000/svg">
<circle cx="26" cy="26.7659" r="26" fill="#B163FF" fill-opacity="0.2"/>
<g clip-path="url(#clip0_604_986)">
<path d="M34.75 34.2659H20.5833C20.0308 34.2659 19.5009 34.0464 19.1102 33.6557C18.7195 33.265 18.5 32.7351 18.5 32.1825V18.0159C18.5 17.6843 18.3683 17.3664 18.1339 17.132C17.8995 16.8976 17.5815 16.7659 17.25 16.7659C16.9185 16.7659 16.6005 16.8976 16.3661 17.132C16.1317 17.3664 16 17.6843 16 18.0159V32.1825C16.0013 33.3977 16.4846 34.5627 17.3439 35.422C18.2031 36.2812 19.3682 36.7645 20.5833 36.7659H34.75C35.0815 36.7659 35.3995 36.6342 35.6339 36.3998C35.8683 36.1653 36 35.8474 36 35.5159C36 35.1843 35.8683 34.8664 35.6339 34.632C35.3995 34.3976 35.0815 34.2659 34.75 34.2659Z" fill="#B163FF"/>
<path d="M23.917 22.793C23.5855 22.793 23.2675 22.9479 23.0331 23.2238C22.7987 23.4996 22.667 23.8738 22.667 24.2639V31.1283C22.667 31.5184 22.7987 31.8925 23.0331 32.1684C23.2675 32.4442 23.5855 32.5992 23.917 32.5992C24.2485 32.5992 24.5665 32.4442 24.8009 32.1684C25.0353 31.8925 25.167 31.5184 25.167 31.1283V24.2639C25.167 23.8738 25.0353 23.4996 24.8009 23.2238C24.5665 22.9479 24.2485 22.793 23.917 22.793Z" fill="#B163FF"/>
<path d="M27.6667 22.2289V29.7709C27.6667 30.521 27.7984 31.2404 28.0329 31.7708C28.2673 32.3012 28.5852 32.5992 28.9167 32.5992C29.2483 32.5992 29.5662 32.3012 29.8006 31.7708C30.0351 31.2404 30.1667 30.521 30.1667 29.7709V22.2289C30.1667 21.4788 30.0351 20.7594 29.8006 20.229C29.5662 19.6986 29.2483 19.4006 28.9167 19.4006C28.5852 19.4006 28.2673 19.6986 28.0329 20.229C27.7984 20.7594 27.6667 21.4788 27.6667 22.2289Z" fill="#B163FF"/>
<path d="M32.6667 18.925V30.4401C32.6667 31.0127 32.7984 31.5619 33.0329 31.9668C33.2673 32.3717 33.5852 32.5992 33.9167 32.5992C34.2483 32.5992 34.5662 32.3717 34.8006 31.9668C35.0351 31.5619 35.1667 31.0127 35.1667 30.4401V18.925C35.1667 18.3523 35.0351 17.8032 34.8006 17.3983C34.5662 16.9933 34.2483 16.7659 33.9167 16.7659C33.5852 16.7659 33.2673 16.9933 33.0329 17.3983C32.7984 17.8032 32.6667 18.3523 32.6667 18.925Z" fill="#B163FF"/>
</g>
<defs>
<clipPath id="clip0_604_986">
<rect width="20" height="20" fill="white" transform="translate(16 16.7659)"/>
</clipPath>
</defs>
</svg>
