<svg width="52" height="53" viewBox="0 0 52 53" fill="none" xmlns="http://www.w3.org/2000/svg">
<circle cx="26" cy="26.7659" r="26" fill="#1CCFE7" fill-opacity="0.2"/>
<g clip-path="url(#clip0_604_969)">
<path d="M34.75 34.2659H20.5833C20.0308 34.2659 19.5009 34.0464 19.1102 33.6557C18.7195 33.265 18.5 32.7351 18.5 32.1825V18.0159C18.5 17.6843 18.3683 17.3664 18.1339 17.132C17.8995 16.8976 17.5815 16.7659 17.25 16.7659C16.9185 16.7659 16.6005 16.8976 16.3661 17.132C16.1317 17.3664 16 17.6843 16 18.0159V32.1825C16.0013 33.3977 16.4846 34.5627 17.3439 35.422C18.2031 36.2812 19.3682 36.7645 20.5833 36.7659H34.75C35.0815 36.7659 35.3995 36.6342 35.6339 36.3998C35.8683 36.1653 36 35.8474 36 35.5159C36 35.1843 35.8683 34.8664 35.6339 34.632C35.3995 34.3976 35.0815 34.2659 34.75 34.2659Z" fill="#1CCFE7"/>
<path d="M23.9165 24.2659C23.585 24.2659 23.267 24.3976 23.0326 24.632C22.7982 24.8664 22.6665 25.1843 22.6665 25.5159V31.3492C22.6665 31.6807 22.7982 31.9987 23.0326 32.2331C23.267 32.4675 23.585 32.5992 23.9165 32.5992C24.248 32.5992 24.566 32.4675 24.8004 32.2331C25.0348 31.9987 25.1665 31.6807 25.1665 31.3492V25.5159C25.1665 25.1843 25.0348 24.8664 24.8004 24.632C24.566 24.3976 24.248 24.2659 23.9165 24.2659Z" fill="#1CCFE7"/>
<path d="M27.6665 28.0159V31.3492C27.6665 31.6807 27.7982 31.9987 28.0326 32.2331C28.267 32.4675 28.585 32.5992 28.9165 32.5992C29.248 32.5992 29.566 32.4675 29.8004 32.2331C30.0348 31.9987 30.1665 31.6807 30.1665 31.3492V28.0159C30.1665 27.6843 30.0348 27.3664 29.8004 27.132C29.566 26.8976 29.248 26.7659 28.9165 26.7659C28.585 26.7659 28.267 26.8976 28.0326 27.132C27.7982 27.3664 27.6665 27.6843 27.6665 28.0159Z" fill="#1CCFE7"/>
<path d="M32.6665 24.6826V31.3492C32.6665 31.6807 32.7982 31.9987 33.0326 32.2331C33.267 32.4675 33.585 32.5992 33.9165 32.5992C34.248 32.5992 34.566 32.4675 34.8004 32.2331C35.0348 31.9987 35.1665 31.6807 35.1665 31.3492V24.6826C35.1665 24.351 35.0348 24.0331 34.8004 23.7987C34.566 23.5643 34.248 23.4326 33.9165 23.4326C33.585 23.4326 33.267 23.5643 33.0326 23.7987C32.7982 24.0331 32.6665 24.351 32.6665 24.6826Z" fill="#1CCFE7"/>
<path d="M21.0001 23.0159C21.2839 23.0165 21.5592 22.9197 21.7801 22.7417L23.6785 21.2242C24.0618 20.9165 24.5453 20.7612 25.0361 20.7883C25.527 20.8154 25.9905 21.0229 26.3376 21.3709C27.1388 22.1619 28.2061 22.6258 29.331 22.672C30.4559 22.7183 31.5576 22.3435 32.421 21.6209L35.5576 18.9667C35.6913 18.8634 35.8026 18.7341 35.8849 18.5866C35.9671 18.4391 36.0187 18.2765 36.0363 18.1085C36.054 17.9405 36.0375 17.7707 35.9877 17.6093C35.9379 17.4479 35.8559 17.2982 35.7467 17.1694C35.6374 17.0406 35.5032 16.9352 35.3522 16.8597C35.2011 16.7841 35.0363 16.74 34.8677 16.7299C34.6991 16.7199 34.5302 16.7441 34.3712 16.8011C34.2122 16.8581 34.0664 16.9468 33.9426 17.0617L30.8068 19.7159C30.4227 20.0362 29.933 20.2017 29.4334 20.1801C28.9338 20.1585 28.4602 19.9514 28.1051 19.5992C27.3235 18.8154 26.28 18.3479 25.1748 18.2864C24.0696 18.2249 22.9806 18.5737 22.1168 19.2659L20.2193 20.7901C20.0171 20.9519 19.8702 21.1725 19.7989 21.4215C19.7275 21.6704 19.7352 21.9353 19.821 22.1797C19.9067 22.424 20.0662 22.6357 20.2774 22.7855C20.4886 22.9353 20.7412 23.0158 21.0001 23.0159Z" fill="#1CCFE7"/>
</g>
<defs>
<clipPath id="clip0_604_969">
<rect width="20" height="20" fill="white" transform="translate(16 16.7659)"/>
</clipPath>
</defs>
</svg>
