<svg width="211" height="40" viewBox="0 0 211 40" fill="none" xmlns="http://www.w3.org/2000/svg">
<path d="M14.0263 39.3835H6.14222V19.9702H0.771484V13.6495H6.14202V9.15198C6.14202 3.82237 8.51742 0 16.3801 0C18.043 0 20.6538 0.331086 20.6538 0.331086V6.20011H17.9116C15.1176 6.20011 14.0267 7.0396 14.0267 9.36051V13.6495H20.5492L19.9684 19.9702H14.0265L14.0263 39.3835ZM32.1164 13.1444C32.0015 13.1444 31.8833 13.1486 31.7663 13.1515C24.4558 13.1515 21.111 18.5832 21.111 26.2937C21.111 36.0068 25.4496 39.8942 31.8235 39.8942C35.4701 39.8942 37.8659 38.378 39.3223 35.5488V39.3862H46.821V13.6522H39.3223V17.6097C38.1332 15.0636 35.6704 13.1746 32.1164 13.1444ZM34.023 19.2252C37.0935 19.2252 38.9364 21.3408 38.9364 24.9391L38.9435 28.6143C38.9435 31.0395 37.4213 33.8769 34.023 33.8769C28.7986 33.8769 28.9381 28.3048 28.9381 26.4488C28.9381 20.206 31.7218 19.2252 34.023 19.2252ZM49.8495 26.5206C49.8495 23.3934 49.6979 13.1612 63.1943 13.1612C68.6118 13.1612 70.8741 14.8627 70.8741 14.8627L69.0558 20.4331C69.0558 20.4331 66.7966 19.2042 63.8527 19.2042C60.0821 19.2042 57.6763 21.3632 57.6763 25.1622L57.6804 27.886C57.6804 31.5362 60.0018 33.9729 63.8604 33.9729C66.5424 33.9729 69.0143 32.7325 69.0143 32.7325L70.8278 38.1865C70.8278 38.1865 68.7593 39.8988 63.2321 39.8988C50.3816 39.8988 49.8496 30.7185 49.8496 26.5206H49.8495ZM114.842 13.1515C122.153 13.1515 125.551 18.5832 125.551 26.2937C125.551 36.0068 121.212 39.8942 114.838 39.8942C111.191 39.8942 108.496 38.3783 107.039 35.5488V39.3862L99.6349 39.3832V0.782454L107.497 0.105195V17.2611C108.631 14.2596 112.36 13.1515 114.843 13.1515H114.842ZM112.638 19.2252C109.568 19.2252 107.497 21.3408 107.497 24.9391L107.489 28.6143C107.485 31.0395 108.924 33.8769 112.638 33.8769C117.863 33.8769 117.723 28.3048 117.723 26.4488C117.723 20.206 114.94 19.2252 112.638 19.2252ZM84.5147 13.1728C76.2229 13.1728 71.8453 17.6383 71.8453 25.574V27.0485C71.8453 37.3482 77.9927 40 85.3216 40C92.4453 40 95.6698 38.0318 95.6698 38.0318L94.1987 32.7908C94.1987 32.7908 90.4058 34.3848 86.2643 34.3848C81.9709 34.3848 80.1244 33.3038 79.651 29.2283H96.2983V25.0237C96.2983 16.4154 91.3853 13.1725 84.5144 13.1725L84.5147 13.1728ZM84.7144 18.4209C87.5847 18.4209 89.4446 20.1594 89.3424 24.1914H79.6655C79.8333 19.9478 81.839 18.4211 84.7144 18.4211V18.4209ZM141.226 13.1374C132.711 13.1374 128.229 17.8772 128.229 26.3711C128.229 38.0252 135.956 39.9012 141.241 39.9012C148.977 39.9012 154.124 35.7871 154.124 26.4769C154.124 16.7868 148.337 13.1374 141.226 13.1374ZM141.119 19.2463C144.863 19.2463 146.347 22.0143 146.347 25.1649V27.8738C146.347 31.6906 144.271 33.8983 141.105 33.8983C138.144 33.8983 136.063 31.8332 136.063 27.8738V25.1649C136.063 20.9423 138.539 19.2463 141.119 19.2463ZM169.785 13.1374C161.271 13.1374 156.788 17.8772 156.788 26.3711C156.788 38.0252 164.516 39.9012 169.801 39.9012C177.536 39.9012 182.684 35.7871 182.684 26.4769C182.684 16.7868 176.896 13.1374 169.785 13.1374ZM169.679 19.2463C173.424 19.2463 174.907 22.0143 174.907 25.1649V27.8738C174.907 31.6906 172.83 33.8983 169.665 33.8983C166.704 33.8983 164.622 31.8332 164.622 27.8738V25.1649C164.622 20.9423 167.099 19.2463 169.679 19.2463ZM185.655 39.3835V0.782454L193.539 0.105195V25.978L201.361 13.6495H209.688L201.528 26.4183L210.002 39.3835H201.651L193.539 26.7945V39.3835H185.655Z" fill="#A7A8B4"/>
</svg>
