<svg width="50" height="50" viewBox="0 0 50 50" fill="none" xmlns="http://www.w3.org/2000/svg">
<path d="M18.4821 0C18.2821 0 18.0831 0.00449219 17.8854 0.0133789C8.48486 0.437012 4.71631 12.4359 11.9849 18.4123L25 29.1138L25.0001 29.1137L26.9532 17.1758L25.0001 1.74834C23.0823 0.638477 20.8574 0 18.4821 0Z" fill="#FF8848"/>
<path d="M32.1147 0.0133789C31.917 0.00449219 31.7181 0 31.5181 0C29.1428 0 26.9179 0.638477 25 1.74834V29.1137L38.0152 18.4124C45.2838 12.4359 41.5152 0.436914 32.1147 0.0133789Z" fill="#FF4C4C"/>
<path d="M25 50L26.9531 49.585L25 45.7759C25 43.2998 24.0164 40.9251 22.2655 39.1743L14.6833 31.5921C13.468 30.3768 11.4976 30.3768 10.2822 31.5921C9.06689 32.8074 9.06689 34.7778 10.2822 35.9932L6.22412 31.9351V23.3654C6.22412 21.6467 4.83086 20.2534 3.11211 20.2534C1.39326 20.2533 0 21.6467 0 23.3653V33.7388L9.48467 46.6979V50H25Z" fill="#FFCDBE"/>
<path d="M46.888 20.2533C45.1692 20.2533 43.776 21.6466 43.776 23.3653V31.9349L39.7178 35.9931C40.9331 34.7778 40.9331 32.8074 39.7178 31.5921C38.5024 30.3767 36.532 30.3767 35.3167 31.5921L27.7345 39.1743C25.9837 40.9251 25 43.2998 25 45.7759V50H40.5153V46.6979L50 33.7387V23.3653C50 21.6467 48.6067 20.2533 46.888 20.2533Z" fill="#FFBEAA"/>
<path d="M19.5055 14.2366L14.4336 9.39451L10.8066 12.735H2.88672V15.6647H11.9503L14.3977 13.4106L19.9099 18.6729L24.9997 11.645L25.9763 9.86326L24.9997 6.65027L19.5055 14.2366Z" fill="#445373"/>
<path d="M39.1931 12.735L35.5661 9.39451L30.4942 14.2366L25 6.65027V11.645L30.0898 18.6729L35.602 13.4106L38.0494 15.6647H47.113V12.735H39.1931Z" fill="#363C5A"/>
</svg>
