<svg width="34" height="30" viewBox="0 0 34 30" fill="none" xmlns="http://www.w3.org/2000/svg">
<path d="M30.4062 0.167847H22.1562C20.4482 0.167847 19.0625 1.55959 19.0625 3.27499V11.5607C19.0625 13.2761 20.4482 14.6678 22.1562 14.6678H27.3125V18.8107C27.3125 21.0957 25.4627 22.9536 23.1875 22.9536H22.6719C21.8146 22.9536 21.125 23.6462 21.125 24.5071V27.6143C21.125 28.4752 21.8146 29.1678 22.6719 29.1678H23.1875C28.8852 29.1678 33.5 24.533 33.5 18.8107V3.27499C33.5 1.55959 32.1143 0.167847 30.4062 0.167847ZM11.8438 0.167847H3.59375C1.88574 0.167847 0.5 1.55959 0.5 3.27499V11.5607C0.5 13.2761 1.88574 14.6678 3.59375 14.6678H8.75V18.8107C8.75 21.0957 6.9002 22.9536 4.625 22.9536H4.10938C3.25215 22.9536 2.5625 23.6462 2.5625 24.5071V27.6143C2.5625 28.4752 3.25215 29.1678 4.10938 29.1678H4.625C10.3227 29.1678 14.9375 24.533 14.9375 18.8107V3.27499C14.9375 1.55959 13.5518 0.167847 11.8438 0.167847Z" fill="white"/>
</svg>
