<svg width="50" height="50" viewBox="0 0 50 50" fill="none" xmlns="http://www.w3.org/2000/svg">
<path d="M3.11201 0C1.39326 0 0 1.3936 0 3.11255V39.0202L15.5602 37.1701L17.5133 16.1293L15.5602 0H3.11201Z" fill="#B6766B"/>
<path d="M31.1207 0H15.5605V37.1701L31.1207 35.3199V0Z" fill="#9E4C63"/>
<path d="M2.14844 35.5935V42.2353H15.5602L17.5133 38.9144L15.5602 35.5935H2.14844Z" fill="#FFF5F5"/>
<path d="M15.5605 35.5935H25.5863V42.2353H15.5605V35.5935Z" fill="#D8E6EB"/>
<path d="M11.4717 44.1853H15.5603L16.5368 42.7205L15.5603 41.2556H11.4717V44.1853Z" fill="#9E4C63"/>
<path d="M15.5605 41.2556H30.1441V44.1853H15.5605V41.2556Z" fill="#833048"/>
<path d="M10.5602 27.6298C10.1037 26.2821 9.03604 25.214 7.68848 24.7576V10.5625C9.03604 10.1061 10.1037 9.03811 10.5602 7.69032H15.5597L16.5362 6.50194L15.5597 4.76013H7.8708V6.22523C7.8708 7.13368 7.13193 7.87268 6.22363 7.87268H4.75879V27.4473H6.22363C7.13193 27.4473 7.8708 28.1863 7.8708 29.0948V30.5599H15.5597L16.5362 29.0005L15.5597 27.6297H10.5602V27.6298Z" fill="#FFDD00"/>
<path d="M26.3615 7.87268H24.8967C23.9884 7.87268 23.2495 7.13368 23.2495 6.22523V4.76013H15.5606V7.69032H20.5602C21.0166 9.03802 22.0843 10.1061 23.4318 10.5625V27.6298H15.5605V30.56H26.3615V7.87268Z" fill="#FFBB17"/>
<path d="M5.16455 33.855C2.3168 33.855 0 36.1722 0 39.0204C0 41.8687 2.3168 44.1859 5.16455 44.1859H7.68896V41.2557H5.16455C3.93223 41.2557 2.92969 40.253 2.92969 39.0204C2.92969 37.7879 3.93223 36.7852 5.16455 36.7852H6.22412L9.76572 37.7619L12.4482 36.7852H15.5603L16.5368 35.089L15.5603 33.855H5.16455Z" fill="#9E4C63"/>
<path d="M15.5605 33.855H32.5855V36.7847H15.5605V33.855Z" fill="#833048"/>
<path d="M6.22363 36.7852V50.0001L9.33574 48.9625L12.4478 50.0001V36.7852H6.22363Z" fill="#FF8848"/>
<path d="M21.7452 20.2139C20.0316 20.2139 18.6426 21.6032 18.6426 23.317V34.3186C18.6426 39.4191 21.0772 43.951 24.8478 46.8147L26.801 32.8793L24.8479 23.317C24.8479 21.6032 23.4588 20.2139 21.7452 20.2139Z" fill="#FFBB85"/>
<path d="M31.135 11.78C31.135 10.0669 29.792 8.61865 28.0797 8.57177C26.3032 8.52303 24.8478 9.94886 24.8478 11.7147V46.8146L24.8477 46.8147C27.4793 48.8136 30.7617 49.9999 34.3212 49.9999C35.3841 49.9999 36.4221 49.8935 37.4256 49.6919L38.4022 38.9143L37.4256 29.5639L31.135 11.78Z" fill="#FDD1A3"/>
<path d="M46.9448 15.1578C45.1684 15.1091 43.7129 16.5349 43.7129 18.3008L37.4258 29.5637V49.6919C44.5979 48.2509 50.0001 41.9159 50.0001 34.3184V18.3662C50.0001 16.653 48.6571 15.2048 46.9448 15.1578Z" fill="#FFBB85"/>
<path d="M40.6577 8.57177C38.8813 8.52303 37.4258 9.94886 37.4258 11.7147L36.4492 21.4561L37.4258 30.5406H43.7129V11.7801C43.713 10.0669 42.37 8.61875 40.6577 8.57177Z" fill="#F5A86C"/>
<path d="M37.4219 9.64593C37.4219 7.9095 36.0145 6.50183 34.2783 6.50183C32.5422 6.50183 31.1348 7.9095 31.1348 9.64593V30.5405H37.4255L37.4219 9.64593Z" fill="#FFBB85"/>
</svg>
