<svg width="50" height="50" viewBox="0 0 50 50" fill="none" xmlns="http://www.w3.org/2000/svg">
<path d="M31.7524 14.6299L20.7734 18.1151L22.2858 39.4536L24.4558 42.8964V49.9999H31.9906L33.9658 34.6384L31.9906 14.6489L31.7524 14.6299Z" fill="#FDD1A3"/>
<path d="M49.3224 26.3315L45.8166 21.7538V19.9939L43.9869 15.6064L31.9902 14.6489V49.9998H39.5254V44.1575H43.8482C44.7872 44.1575 45.6878 43.7887 46.3517 43.132C47.8686 41.632 47.6988 39.1532 45.9911 37.8693L45.5062 37.5047L45.72 36.0844L44.0934 34.1313L46.1609 33.1547L46.5553 30.5346H47.2096C48.6734 30.5346 49.8599 29.3612 49.8599 27.9138C49.8598 27.3426 49.6711 26.787 49.3224 26.3315Z" fill="#FFBB85"/>
<path d="M42.5472 32.5215L41.2619 31.2505L39.167 33.3221L40.4523 34.5931C41.4249 35.5548 42.7178 36.0844 44.0931 36.0844H45.7198L46.1607 33.1547H44.0931C43.5092 33.1548 42.9602 32.9299 42.5472 32.5215Z" fill="#E99958"/>
<path d="M41.5796 25.2736H38.6169V23.6587H36.5107V20.729H41.5796V25.2736Z" fill="#873F2E"/>
<path d="M27.6139 7.58691C25.0144 7.58691 22.5767 8.83447 21.0756 10.933L19.2432 13.4947C17.3658 13.4947 15.8438 14.9998 15.8438 16.8563V24.056C15.8438 29.8297 18.1606 35.3674 22.2855 39.4536L23.8197 37.9365C24.821 36.9464 25.3835 35.6035 25.3835 34.2032V29.926L29.1609 23.0737L31.9904 18.774V15.6064L32.9779 11.9628L31.9904 7.58691H27.6139Z" fill="#B6766B"/>
<path d="M31.9902 7.58691V15.6064H44.2927C45.8061 15.6064 47.2576 15.0119 48.3278 13.9536C49.3981 12.8953 49.9993 11.46 49.9993 9.96338V7.58691H31.9902Z" fill="#9E4C63"/>
<path d="M27.1616 23.0737C25.1221 23.0737 23.4688 24.7087 23.4688 26.7255C23.4688 28.7423 25.1221 30.3772 27.1616 30.3772H29.1604L30.747 23.0737H27.1616Z" fill="#FDD1A3"/>
<path d="M8.88854 0V2.27217C7.58812 2.72676 6.40631 3.4292 5.40127 4.32266L3.37341 3.20752L0 9.20605L2.07822 10.3489C1.9926 10.8806 1.94747 11.4256 1.94747 11.9811C1.94747 12.597 2.00238 13.2001 2.10716 13.7862L0 14.9449L3.37331 20.9435L5.5336 19.7555C6.50941 20.5938 7.64481 21.2551 8.88844 21.6897V24.1509H12.359L13.3466 11.6927L12.359 0H8.88854Z" fill="#6AABFF"/>
<path d="M22.7708 11.9811C22.7708 11.4256 22.7258 10.8806 22.6401 10.3489L24.7183 9.20605L21.345 3.20752L19.3171 4.32266C18.3121 3.4292 17.1303 2.72676 15.8299 2.27217V0H12.3594V24.151H15.8299V21.6898C17.0735 21.2551 18.2089 20.5939 19.1847 19.7556L21.345 20.9436L24.7183 14.945L22.611 13.7862C22.7159 13.2 22.7708 12.5969 22.7708 11.9811Z" fill="#5980FF"/>
<path d="M9.13379 12.0755C9.13379 13.8371 10.5779 15.2651 12.3593 15.2651L13.3468 11.6928L12.3593 8.88599C10.5779 8.88599 9.13379 10.314 9.13379 12.0755Z" fill="#5980FF"/>
<path d="M12.3594 8.88599V15.2651C14.1407 15.2651 15.5848 13.8371 15.5848 12.0755C15.5848 10.314 14.1407 8.88599 12.3594 8.88599Z" fill="#4C4CFF"/>
</svg>
