<svg width="50" height="50" viewBox="0 0 50 50" fill="none" xmlns="http://www.w3.org/2000/svg">
<g clip-path="url(#clip0_834_254)">
<path d="M33.4258 7.12378L40.0713 0.478271H49.9988V4.70913L45.8052 10.8552L39.2412 15.4655L33.4258 7.12378Z" fill="#445373"/>
<path d="M49.9988 4.70911V21.0362L48.6686 22.3664L39.2412 15.4655L49.9988 4.70911Z" fill="#363C5A"/>
<path d="M37.9106 11.6084L24.999 13.5378L35.0691 26.3081L41.8935 31.3421L43.1562 30.0793C44.5524 29.0704 45.461 27.4283 45.461 25.5741L48.6687 22.3665L37.9106 11.6084Z" fill="#873F2E"/>
<path d="M1.3291 22.3665L4.53672 25.5741C4.53672 27.4284 5.44531 29.0704 6.8415 30.0793L7.2958 29.5958L26.2993 48.6089C27.5138 49.8254 29.4848 49.8262 30.7002 48.6107L30.7004 48.6105C31.9151 47.3958 31.9151 45.4262 30.7004 44.2115L30.7022 44.2096L31.4339 44.9413C32.6483 46.1578 34.6193 46.1587 35.8348 44.9431L35.835 44.9429C37.0497 43.7282 37.0497 41.7587 35.835 40.5439L22.9547 25.7106L7.43398 12.1429L1.3291 22.3665Z" fill="#FFCDBE"/>
<path d="M46.1039 33.2088L24.3442 11.4491L26.0253 9.65978C24.091 7.7255 21.4057 6.73683 18.6789 6.95509L16.5715 7.12374L7.43359 12.1429L36.5682 41.2737C37.7826 42.4902 39.7536 42.4911 40.969 41.2756L40.9692 41.2754C42.184 40.0607 42.184 38.0911 40.9692 36.8764L41.7027 37.6062C42.9172 38.8227 44.8882 38.8235 46.1036 37.608L46.1038 37.6078C47.3187 36.3931 47.3187 34.4236 46.1039 33.2088Z" fill="#FFBEAA"/>
<path d="M-0.000976562 4.70911V21.0362L1.3293 22.3664L9.49346 14.2023L5.93428 8.69055L-0.000976562 4.70911Z" fill="#445373"/>
<path d="M16.5721 7.12378L9.92656 0.478271H-0.000976562V4.70913L9.49346 14.2023L16.5721 7.12378Z" fill="#363C5A"/>
<path d="M31.3189 6.95509C28.5922 6.73683 25.9068 7.7255 23.9726 9.65978L15.6113 18.0209L17.8148 20.2244C19.0318 21.4414 21.0049 21.4414 22.2219 20.2244L27.5514 14.8949L27.5581 14.9018C29.5012 16.8546 32.6606 16.8586 34.6087 14.9106L37.9109 11.6083L33.4263 7.12365L31.3189 6.95509Z" fill="#A34F3E"/>
<path d="M24.7018 42.4396C23.4884 41.2262 21.5212 41.2262 20.3078 42.4396L20.2984 42.4373L21.036 41.6972C22.2477 40.4836 22.2469 38.5177 21.0342 37.3051C19.8208 36.0917 17.8536 36.0917 16.6403 37.3051L16.6182 37.3145L14.7472 38.2132L13.4098 40.5302L13.4013 40.544C12.1865 41.7588 12.1865 43.7283 13.4013 44.943L13.4015 44.9432C14.617 46.1588 16.5879 46.1579 17.8024 44.9414L18.5421 44.1992L18.5359 44.2116C17.3211 45.4263 17.3211 47.3959 18.5359 48.6106L18.5361 48.6108C19.7516 49.8263 21.7225 49.8255 22.9369 48.609L24.7035 46.8318C25.9153 45.6181 25.9145 43.6522 24.7018 42.4396Z" fill="#873F2E"/>
<path d="M17.367 32.1703C16.1536 30.9569 14.1864 30.9569 12.9731 32.1703L11.4871 33.6563L11.5006 33.6285C12.7123 32.4148 12.7115 30.449 11.4989 29.2363C10.2855 28.0229 8.31829 28.0229 7.10491 29.2363L5.33293 31.0083C4.11819 32.223 4.11819 34.1926 5.33293 35.4073L5.33313 35.4075C6.54866 36.623 8.51956 36.6222 9.73401 35.4057L9.73723 35.4062L8.26702 36.8764C7.05227 38.0911 7.05227 40.0606 8.26702 41.2754L8.26721 41.2756C9.48274 42.4911 11.4536 42.4902 12.6681 41.2737L17.3688 36.5626C18.5805 35.3489 18.5797 33.383 17.367 32.1703Z" fill="#A34F3E"/>
</g>
<defs>
<clipPath id="clip0_834_254">
<rect width="50" height="50" fill="white" transform="translate(-0.000976562)"/>
</clipPath>
</defs>
</svg>
