<svg width="50" height="50" viewBox="0 0 50 50" fill="none" xmlns="http://www.w3.org/2000/svg">
<g clip-path="url(#clip0_834_255)">
<path d="M7.84419 16.9323C7.79126 21.1036 9.22743 24.9377 11.6544 27.9373C13.4647 30.1746 14.4879 32.9453 14.4879 35.8233V35.8702L24.999 36.8468L26.9522 19.9672L24.999 0.000122346C15.5967 -0.00153785 7.96411 7.49455 7.84419 16.9323Z" fill="#FFDD00"/>
<path d="M25.2818 0.00108421C25.1873 -0.000478329 25.0933 0.000107624 24.999 0.000107624V36.8467L35.5101 35.8702V35.8232C35.5101 32.9906 36.4616 30.2279 38.2602 28.0395C40.6941 25.0782 42.1553 21.2875 42.1553 17.155C42.1553 7.77433 34.6266 0.152065 25.2818 0.00108421Z" fill="#FFBB17"/>
<path d="M18.0533 50.0001H24.9987L25.9753 46.6797L24.9987 42.7993L16.0703 43.7759L18.0533 50.0001Z" fill="#445373"/>
<path d="M31.9443 50L33.9273 43.7758L24.999 42.7992V50H31.9443Z" fill="#363C5A"/>
<path d="M14.4883 35.8701V43.7758H24.9994L25.976 39.404L24.9994 35.8701H14.4883Z" fill="#D8E6EB"/>
<path d="M24.999 35.8701H35.5101V43.7758H24.999V35.8701Z" fill="#C4D2DC"/>
<path d="M21.8865 6.22302V7.83732C20.6022 8.28528 19.444 9.0021 18.4801 9.92126L17.0292 9.16011L14.1377 14.672L15.6408 15.4605C15.5824 15.8852 15.5515 16.3186 15.5515 16.7593C15.5515 17.2619 15.5911 17.7551 15.6667 18.2364L14.1378 19.0385L17.0293 24.5503L18.6119 23.72C19.549 24.5803 20.6602 25.2535 21.8866 25.6812V27.4873H24.9987L26.9519 16.8552L24.9987 6.22312L21.8865 6.22302Z" fill="#6AABFF"/>
<path d="M34.4461 16.7592C34.4461 16.3185 34.4153 15.8851 34.3569 15.4603L35.8599 14.6718L32.9685 9.15999L31.5176 9.92114C30.5537 9.00197 29.3954 8.28516 28.1111 7.8372V6.2229H24.999V27.4871H28.1111V25.681C29.3375 25.2533 30.4488 24.58 31.3858 23.7198L32.9685 24.5501L35.8599 19.0383L34.331 18.2362C34.4065 17.7549 34.4461 17.2618 34.4461 16.7592Z" fill="#5980FF"/>
<path d="M21.0332 16.8551C21.0332 19.0451 22.8085 20.8205 24.9986 20.8205L26.243 16.8551L24.9986 12.8896C22.8085 12.8896 21.0332 14.6651 21.0332 16.8551Z" fill="#5980FF"/>
<path d="M24.999 12.8896V20.8204C27.189 20.8204 28.9645 19.0451 28.9645 16.855C28.9644 14.6651 27.189 12.8896 24.999 12.8896Z" fill="#4C4CFF"/>
</g>
<defs>
<clipPath id="clip0_834_255">
<rect width="50" height="50" fill="white" transform="translate(-0.000976562)"/>
</clipPath>
</defs>
</svg>
