<svg width="50" height="50" viewBox="0 0 50 50" fill="none" xmlns="http://www.w3.org/2000/svg">
<path d="M19.2809 0V4.05615C17.4971 4.54209 15.8044 5.24873 14.2351 6.14678L11.3664 3.27813L3.27832 11.3664L6.14688 14.2351C5.24883 15.8045 4.54219 17.4972 4.05625 19.2809H0V30.7192H4.05615C4.54209 32.503 5.24873 34.1957 6.14678 35.765L3.27832 38.6336L11.3664 46.7217L14.2351 43.8531C15.8045 44.7512 17.4972 45.4578 19.2809 45.9437V50H25L26.9531 22.0215L25 0H19.2809Z" fill="#6AABFF"/>
<path d="M50 30.7191V19.2809H45.9438C45.4579 17.4972 44.7513 15.8045 43.8531 14.2351L46.7217 11.3664L38.6336 3.27822L35.7649 6.14688C34.1955 5.24883 32.5028 4.54219 30.7191 4.05625V0H25V50H30.7191V45.9438C32.5029 45.4579 34.1956 44.7513 35.7649 43.8532L38.6336 46.7218L46.7217 38.6337L43.8531 35.765C44.7512 34.1956 45.4578 32.5029 45.9438 30.7192H50V30.7191Z" fill="#5980FF"/>
<path d="M10.0205 25C10.0205 33.2729 16.727 39.9793 24.9998 39.9793L26.9529 24.214L24.9998 10.0208C16.727 10.0208 10.0205 16.7272 10.0205 25Z" fill="#FFF5F5"/>
<path d="M25 10.0208V39.9793C33.2729 39.9793 39.9793 33.2729 39.9793 25C39.9793 16.7272 33.2729 10.0208 25 10.0208Z" fill="#D8E6EB"/>
<path d="M24.9998 23.1221C21.7665 23.1221 19.1455 25.7432 19.1455 28.9764V34.8633L24.9998 39.0314L25.9764 26.5084L24.9998 23.1221Z" fill="#445373"/>
<path d="M30.8543 28.9765C30.8543 25.7433 28.2332 23.1222 25 23.1222V39.0316L30.8543 35.3516V28.9765Z" fill="#363C5A"/>
<path d="M21.5635 19.8714C21.5664 21.7669 23.1037 23.3027 24.9999 23.3027L25.9765 20.2149L24.9999 16.4401C23.1037 16.4401 21.5663 17.9759 21.5635 19.8714Z" fill="#A34F3E"/>
<path d="M25 16.4401V23.3027C26.8962 23.3027 28.4336 21.7669 28.4364 19.8714C28.4336 17.9759 26.8962 16.4401 25 16.4401Z" fill="#873F2E"/>
<path d="M19.146 31.6493C16.7931 31.6493 14.7643 33.0375 13.834 35.0394L19.146 37.4183L20.1226 34.2122L19.146 31.6493Z" fill="#445373"/>
<path d="M24.9998 37.5037C24.9998 34.2704 22.3787 31.6494 19.1455 31.6494V37.4185L24.9998 40.04V37.5037Z" fill="#363C5A"/>
<path d="M15.709 28.3986C15.7119 30.2941 17.2492 31.8299 19.1454 31.8299L20.122 28.3933L19.1454 24.9673C17.2492 24.9674 15.7118 26.5031 15.709 28.3986Z" fill="#FFCDBE"/>
<path d="M19.1455 24.9674V31.8299C21.0417 31.8299 22.5791 30.2942 22.5819 28.3987C22.579 26.5031 21.0417 24.9674 19.1455 24.9674Z" fill="#FFBEAA"/>
<path d="M30.8543 31.6493C27.6211 31.6493 25 34.2704 25 37.5036V39.0313L30.8543 38.037L31.8309 33.9564L30.8543 31.6493Z" fill="#445373"/>
<path d="M30.8545 31.6493V38.0371L36.1682 35.043C35.2386 33.0391 33.2089 31.6493 30.8545 31.6493Z" fill="#363C5A"/>
<path d="M27.418 28.3986C27.4209 30.2941 28.9582 31.8299 30.8544 31.8299L31.831 28.4039L30.8544 24.9673C28.9582 24.9674 27.4209 26.5031 27.418 28.3986Z" fill="#FDD1A3"/>
<path d="M30.8545 24.9674V31.8299C32.7507 31.8299 34.2881 30.2942 34.2909 28.3987C34.2881 26.5031 32.7507 24.9674 30.8545 24.9674Z" fill="#FFBB85"/>
<path d="M11.4854 25.0001C11.4854 17.5481 17.5479 11.4856 24.9998 11.4856L25.9764 10.0208L24.9998 8.55591C15.9324 8.55591 8.55566 15.9327 8.55566 25.0001C8.55566 34.0674 15.9324 41.4442 24.9998 41.4442L25.9764 39.9793L24.9998 38.5145C17.5479 38.5145 11.4854 32.452 11.4854 25.0001Z" fill="#5980FF"/>
<path d="M25 8.55591V11.4856C32.452 11.4856 38.5145 17.5481 38.5145 25.0001C38.5145 32.452 32.452 38.5145 25 38.5145V41.4442C34.0674 41.4442 41.4441 34.0674 41.4441 25.0001C41.4441 15.9327 34.0674 8.55591 25 8.55591Z" fill="#4C4CFF"/>
</svg>
