<svg width="38" height="38" viewBox="0 0 38 38" fill="none" xmlns="http://www.w3.org/2000/svg">
<path d="M19.3985 31.4751L18.9951 30.6706L18.9951 30.6706L19.3985 31.4751ZM18.6041 31.4751L19.0075 30.6706L19.0075 30.6706L18.6041 31.4751ZM29.1846 17.4166C29.1846 21.1945 27.1889 24.2431 24.856 26.5158C22.5257 28.786 19.9458 30.1938 18.9951 30.6706L19.802 32.2796C20.8311 31.7635 23.5942 30.258 26.112 27.8051C28.6272 25.3548 30.9846 21.8705 30.9846 17.4166H29.1846ZM19.0013 7.23325C24.6254 7.23325 29.1846 11.7925 29.1846 17.4166H30.9846C30.9846 10.7984 25.6195 5.43325 19.0013 5.43325V7.23325ZM8.81797 17.4166C8.81797 11.7925 13.3772 7.23325 19.0013 7.23325V5.43325C12.3831 5.43325 7.01797 10.7984 7.01797 17.4166H8.81797ZM19.0075 30.6706C18.0568 30.1938 15.4769 28.786 13.1466 26.5158C10.8137 24.2431 8.81797 21.1945 8.81797 17.4166H7.01797C7.01797 21.8705 9.37537 25.3548 11.8906 27.8051C14.4084 30.2581 17.1715 31.7635 18.2006 32.2796L19.0075 30.6706ZM18.9951 30.6706C18.9918 30.6722 18.9911 30.6722 18.9928 30.6717C18.9946 30.6713 18.9976 30.6708 19.0013 30.6708C19.005 30.6708 19.008 30.6713 19.0098 30.6717C19.0115 30.6722 19.0108 30.6722 19.0075 30.6706L18.2006 32.2796C18.7091 32.5346 19.2935 32.5346 19.802 32.2796L18.9951 30.6706ZM22.85 17.4166C22.85 19.5429 21.1263 21.2666 19 21.2666V23.0666C22.1204 23.0666 24.65 20.537 24.65 17.4166H22.85ZM19 13.5666C21.1263 13.5666 22.85 15.2903 22.85 17.4166H24.65C24.65 14.2962 22.1204 11.7666 19 11.7666V13.5666ZM15.15 17.4166C15.15 15.2903 16.8737 13.5666 19 13.5666V11.7666C15.8796 11.7666 13.35 14.2962 13.35 17.4166H15.15ZM19 21.2666C16.8737 21.2666 15.15 19.5429 15.15 17.4166H13.35C13.35 20.537 15.8796 23.0666 19 23.0666V21.2666Z" fill="#635CF5"/>
</svg>
