<svg width="38" height="38" viewBox="0 0 38 38" fill="none" xmlns="http://www.w3.org/2000/svg">
<path d="M29.0485 22.3818L33.5504 26.8837C34.1439 27.4772 34.1439 28.4395 33.5504 29.0329C30.3417 32.2416 25.2619 32.6027 21.6316 29.88L18.6774 27.6643C15.9894 25.6483 13.6017 23.2606 11.5857 20.5726L9.37001 17.6184C6.64734 13.9881 7.00836 8.90831 10.2171 5.69961C10.8105 5.10612 11.7728 5.10612 12.3663 5.69961L16.8682 10.2015C17.4703 10.8036 17.4703 11.7797 16.8682 12.3818L15.0779 14.1721C14.8074 14.4426 14.7404 14.8558 14.9114 15.1979C16.8892 19.1534 20.0966 22.3608 24.0521 24.3386C24.3942 24.5096 24.8074 24.4426 25.0779 24.1721L26.8682 22.3818C27.4703 21.7797 28.4464 21.7797 29.0485 22.3818Z" stroke="#015289" stroke-width="2"/>
</svg>
